<svg width="124" height="124" viewBox="0 0 124 124" fill="none" xmlns="http://www.w3.org/2000/svg">
<g clip-path="url(#clip0)">
<path d="M35.6753 51.7316C34.4938 50.7198 32.7156 50.8573 31.7037 52.0388C30.8006 53.0933 30.8006 54.6485 31.7037 55.7032L59.8713 83.871C60.9589 84.9833 62.7422 85.0034 63.8545 83.9158C63.8695 83.901 63.8845 83.8862 63.8992 83.871L110.883 34.5774L114.911 30.3521L122.995 21.9019C124.186 20.9012 124.34 19.1244 123.34 17.9332C122.339 16.7422 120.562 16.588 119.371 17.5887C119.21 17.7236 119.066 17.8758 118.939 18.0428L111.7 25.5636L107.784 29.676L61.8148 77.8711L35.6753 51.7316Z" fill="#3E408E"/>
<path d="M118.798 38.4364H118.855C117.707 37.3864 115.925 37.4658 114.875 38.6136C114.224 39.3258 113.982 40.3219 114.235 41.2534C125.745 70.1594 111.642 102.923 82.7363 114.432C53.8305 125.942 21.0669 111.84 9.55712 82.9335C-1.95263 54.0277 12.1499 21.2643 41.056 9.75453C62.3014 1.29505 86.5528 6.51763 102.433 22.9723C103.637 23.9568 105.412 23.7784 106.396 22.5739C107.282 21.4899 107.238 19.9199 106.292 18.8879C106.176 18.8037 106.053 18.7282 105.926 18.6626C81.991 -5.6917 42.8451 -6.03204 18.4908 17.9025C-5.86345 41.837 -6.20404 80.9829 17.7305 105.337C41.665 129.692 80.8109 130.032 105.165 106.098C122.775 88.7915 128.4 62.6677 119.474 39.6477C119.353 39.1939 119.121 38.7775 118.798 38.4364Z" fill="#3E408E"/>
</g>
<defs>
<clipPath id="clip0">
<rect width="124" height="124" fill="white"/>
</clipPath>
</defs>
</svg>
